<svg width="1920" height="1080" viewBox="0 0 1920 1080" xmlns="http://www.w3.org/2000/svg"><path d="M 0,1080 C 0,1080 0,270 0,270 C 74.58357879234168,310.9629970544919 149.16715758468337,351.92599410898384 218,328 C 286.83284241531663,304.07400589101616 349.9149484536082,215.25902061855672 437,196 C 524.0850515463918,176.74097938144328 635.1730486008838,227.0379234167894 716,252 C 796.8269513991162,276.9620765832106 847.392857142857,276.5892857142857 935,256 C 1022.607142857143,235.41071428571428 1147.2555228276879,194.60493372606774 1241,169 C 1334.7444771723121,143.39506627393226 1397.5850515463917,132.99097938144325 1474,169 C 1550.4149484536083,205.00902061855675 1640.4042709867454,287.43114874815905 1717,312 C 1793.5957290132546,336.56885125184095 1856.7978645066273,303.28442562592045 1920,270 C 1920,270 1920,1080 1920,1080 Z" fill="#4d4242" opacity="0.15"/><path d="M 0,1080 C 0,1080 0,540 0,540 C 72.580265095729,581.9213917525774 145.160530191458,623.8427835051547 223,639 C 300.839469808542,654.1572164948453 383.9381443298969,642.5502577319587 460,601 C 536.0618556701031,559.4497422680413 605.0868924889544,487.95618556701027 697,454 C 788.9131075110456,420.04381443298973 903.7142857142856,423.62500000000006 988,467 C 1072.2857142857144,510.37499999999994 1126.055964653903,593.5438144329897 1203,626 C 1279.944035346097,658.4561855670103 1380.061855670103,640.1997422680413 1458,632 C 1535.938144329897,623.8002577319587 1591.696612665685,625.6572164948453 1665,612 C 1738.303387334315,598.3427835051547 1829.1516936671574,569.1713917525774 1920,540 C 1920,540 1920,1080 1920,1080 Z" fill="#4d4242" opacity="0.3"/><path d="M 0,1080 C 0,1080 0,810 0,810 C 69.78755522827689,858.8216126656848 139.57511045655377,907.6432253313696 211,895 C 282.4248895434462,882.3567746686304 355.4871134020618,808.2487113402063 439,770 C 522.5128865979382,731.7512886597937 616.4764359351989,729.3619293078056 710,738 C 803.5235640648011,746.6380706921944 896.6071428571427,766.3035714285714 974,779 C 1051.3928571428573,791.6964285714286 1113.0949926362298,797.4237849779087 1181,778 C 1248.9050073637702,758.5762150220913 1323.0128865979382,714.0012886597938 1419,728 C 1514.9871134020618,741.9987113402062 1632.8534609720177,814.5710603829161 1720,838 C 1807.1465390279823,861.4289396170839 1863.5732695139911,835.7144698085419 1920,810 C 1920,810 1920,1080 1920,1080 Z" fill="#4d4242" opacity="0.44999999999999996"/></svg>